<svg xmlns="http://www.w3.org/2000/svg" viewBox="0 0 640 340" fill="none"><defs><linearGradient id="accent" x1="0" y1="1" x2="1" y2="0"><stop stop-color="#448dff"/><stop offset="1" stop-color="#4cddce"/></linearGradient><radialGradient id="glow"><stop stop-color="#448dff" stop-opacity=".25"/><stop offset="1" stop-color="#448dff" stop-opacity="0"/></radialGradient><pattern id="grid" width="32" height="32" patternUnits="userSpaceOnUse"><path d="M32 0H0V32" fill="none" stroke="#758ba4" stroke-opacity=".12"/></pattern></defs><rect width="640" height="340" fill="#101722"/><rect width="640" height="340" fill="url(#grid)"/><ellipse cx="360" cy="170" rx="320" ry="210" fill="url(#glow)"/><path d="M285 121c-4-35 20-58 48-58 23 0 41 13 47 34 5-2 10-3 16-3 27 0 47 20 47 46 0 25-18 44-43 44H286c-20 0-34-14-34-31 0-17 12-30 33-32Z" fill="#182942" stroke="url(#accent)" stroke-width="2.5"/><path d="M315 182V237H226M358 183V262H437" stroke="#6b8db1" stroke-width="2"/><path d="m305 203 10-10 10 10m23 10 10-10 10 10" stroke="#7dbdff" stroke-width="2" stroke-linejoin="round"/><g fill="#162238" stroke="#5173a1"><rect x="81" y="178" width="145" height="37" rx="8"/><rect x="81" y="225" width="145" height="37" rx="8"/><rect x="81" y="272" width="145" height="37" rx="8"/></g><g fill="#65a7ff"><circle cx="102" cy="197" r="3"/><circle cx="102" cy="244" r="3"/><circle cx="102" cy="291" r="3"/></g><path d="M118 197H201M118 244H201M118 291H201" stroke="#526985" stroke-width="3" stroke-linecap="round"/><rect x="437" y="212" width="116" height="86" rx="14" fill="#152e39" stroke="#54cfd1"/><path d="m477 253 13 13 24-28" stroke="#62e0d4" stroke-width="4" stroke-linecap="round" stroke-linejoin="round"/><g font-family="monospace" font-size="10" fill="#89a5c9"><text x="88" y="162">SELF-MANAGED</text><text x="446" y="199">CLOUD READY</text></g><path d="M128 114H209M168 74V154" stroke="#3c5676" stroke-dasharray="3 6"/></svg>